<svg width="209" height="48" viewBox="0 0 209 48" fill="none" xmlns="http://www.w3.org/2000/svg">
    <path d="M55.5859 16.0469V10.6562H72.5V16.0469H66.7969V38H61.2891V16.0469H55.5859ZM74.5703 30.3828V17.5312C74.5703 16.151 75.1562 14.7448 76.3281 13.3125C77.8906 11.4375 79.8698 10.487 82.2656 10.4609V15.9688C81.1979 15.9948 80.4948 16.5938 80.1562 17.7656C80.1042 17.9479 80.0781 18.0781 80.0781 18.1562V30.3828C80.0781 31.4505 80.6641 32.1797 81.8359 32.5703C82.0182 32.6224 82.1484 32.6484 82.2266 32.6484V38.1953C80.7422 38.1953 79.2578 37.6615 77.7734 36.5938C75.6641 35.0312 74.5964 32.9609 74.5703 30.3828ZM84.375 38.1953V32.6484C84.7917 32.6484 85.2604 32.4271 85.7812 31.9844C86.276 31.5417 86.5365 31.0078 86.5625 30.3828V18.1562C86.5625 17.6875 86.3411 17.1927 85.8984 16.6719C85.4818 16.2292 84.974 15.9948 84.375 15.9688V10.4609C87.0052 10.4609 89.1146 11.5938 90.7031 13.8594C91.6146 15.1615 92.0703 16.3854 92.0703 17.5312V30.3828C92.0703 33.2734 90.7812 35.487 88.2031 37.0234C86.849 37.8047 85.5729 38.1953 84.375 38.1953ZM95.1953 38V10.6562H100.703V38H95.1953ZM102.812 25.5391V20.1484H104.102C105.221 20.1484 105.872 19.6536 106.055 18.6641C106.081 18.5078 106.094 18.3385 106.094 18.1562C105.938 16.8802 105.273 16.1901 104.102 16.0859H102.812V10.6562H104.258C109.128 10.8385 111.602 13.2865 111.68 18C111.68 21.4896 110.677 23.7422 108.672 24.7578C107.552 25.3047 106.081 25.5651 104.258 25.5391C104.18 25.5391 103.698 25.5391 102.812 25.5391ZM113.906 38V10.6562H119.414V38H113.906ZM120.977 24.6797L125.156 10.6562H130.586L126.445 24.6797L130.742 38H125.352L120.977 24.6797ZM132.969 38V10.6562H147.188V16.125H138.477V21.6719H143.516V27.1797H138.477V32.4922H147.188V38H132.969ZM149.844 38V10.6562H155.312V38H149.844ZM157.461 38V33.1953H157.656C159.219 33.1953 160.26 32.5443 160.781 31.2422C160.964 30.8255 161.055 30.3958 161.055 29.9531C161.055 28.651 160.534 27.7135 159.492 27.1406C158.971 26.8542 158.398 26.7109 157.773 26.7109H157.461V21.9453H157.773C159.232 21.9453 160.234 21.3203 160.781 20.0703C160.964 19.6276 161.055 19.1719 161.055 18.7031C161.055 17.4271 160.521 16.4896 159.453 15.8906C158.906 15.6042 158.307 15.4609 157.656 15.4609H157.461V10.6562H158.398C161.784 10.6562 164.167 11.8932 165.547 14.3672C166.198 15.5651 166.523 16.8802 166.523 18.3125C166.523 20.5781 165.833 22.4141 164.453 23.8203C164.245 24.0026 164.049 24.1719 163.867 24.3281C165.378 25.4479 166.25 27.1536 166.484 29.4453C166.51 29.7578 166.523 30.0573 166.523 30.3438C166.523 32.8698 165.638 34.849 163.867 36.2812C162.409 37.4271 160.586 38 158.398 38H157.461ZM168.984 38L174.023 15.2656H174.609L176.953 26.2031L174.375 38H168.984ZM177.305 34.6797L178.477 29.2891H179.883L175.742 10.6562H181.172L187.617 38H182.148L181.367 34.6797H177.305ZM189.531 38V10.6562H195V38H189.531ZM197.148 38V33.1953H197.344C198.906 33.1953 199.948 32.5443 200.469 31.2422C200.651 30.8255 200.742 30.3958 200.742 29.9531C200.742 28.651 200.221 27.7135 199.18 27.1406C198.659 26.8542 198.086 26.7109 197.461 26.7109H197.148V21.9453H197.461C198.919 21.9453 199.922 21.3203 200.469 20.0703C200.651 19.6276 200.742 19.1719 200.742 18.7031C200.742 17.4271 200.208 16.4896 199.141 15.8906C198.594 15.6042 197.995 15.4609 197.344 15.4609H197.148V10.6562H198.086C201.471 10.6562 203.854 11.8932 205.234 14.3672C205.885 15.5651 206.211 16.8802 206.211 18.3125C206.211 20.5781 205.521 22.4141 204.141 23.8203C203.932 24.0026 203.737 24.1719 203.555 24.3281C205.065 25.4479 205.938 27.1536 206.172 29.4453C206.198 29.7578 206.211 30.0573 206.211 30.3438C206.211 32.8698 205.326 34.849 203.555 36.2812C202.096 37.4271 200.273 38 198.086 38H197.148Z" fill="black"/>
    <path d="M4.41035 23.793C1.97458 20.6454 2.55552 16.1244 5.70791 13.695L17.7702 4.39886C20.9226 1.9694 25.4527 2.55151 27.8885 5.69903L4.41035 23.793Z" fill="black"/>
    <path d="M8.63266 29.2491C7.27945 27.5005 7.6022 24.9888 9.35352 23.6391L27.1241 9.94385C28.8754 8.59415 31.3921 8.91754 32.7453 10.6662C34.0985 12.4148 33.7758 14.9265 32.0245 16.2762L14.2539 29.9714C12.5026 31.3211 9.98586 30.9977 8.63266 29.2491Z" fill="black"/>
    <rect width="30.4425" height="7.2063" rx="3.60315" transform="matrix(0.792072 -0.610427 0.612013 0.790848 12.741 34.558)" fill="black"/>
    <path d="M19.256 41.6677L42.0996 24.0628C44.806 27.5601 44.1605 32.5834 40.6578 35.2828L30.4985 43.1123C26.9958 45.8117 21.9624 45.165 19.256 41.6677Z" fill="black"/>
    <path d="M7.84747 5.98173C7.30591 5.28191 7.43507 4.27671 8.13597 3.73655C8.83687 3.19639 9.84409 3.32581 10.3857 4.02563L15.2855 10.3573L12.7473 12.3134L7.84747 5.98173Z" fill="black"/>
    <path d="M41.7472 44.5512C42.2888 45.251 42.1596 46.2562 41.4587 46.7964C40.7578 47.3366 39.7506 47.2071 39.209 46.5073L34.3091 40.1757L36.8473 38.2196L41.7472 44.5512Z" fill="black"/>
</svg>
